Coordinates
version=1
nRows=54
nColumns=12
inDegrees=yes

Units are S.I. units (second, meters, Newtons, ...)
Angles are in degrees

endheader
time	SC_y	SC_z	SC_x	AC_y	AC_z	AC_x	GH_y	GH_z	GH_yy	EL_x	PS_y
       0.0              -39.95         0.7065           53.9          35.99         -16.11         -5.721          141.2           76.8          150.7          26.23          153.4
  0.001371              -39.95           0.71          53.89          35.99         -16.11         -5.722          141.1          76.79          150.7          26.23          153.4
  0.002741              -39.95         0.7138          53.88           36.0         -16.11         -5.724          141.1          76.78          150.6          26.24          153.4
  0.004112              -39.95         0.7177          53.87           36.0         -16.11         -5.725          141.0          76.78          150.6          26.24          153.4
  0.005482              -39.95          0.722          53.87           36.0         -16.11         -5.726          141.0          76.77          150.6          26.25          153.4
  0.006853              -39.95         0.7265          53.86          36.01          -16.1         -5.728          140.9          76.76          150.6          26.25          153.3
  0.008223              -39.95         0.7313          53.85          36.01          -16.1         -5.729          140.9          76.75          150.5          26.26          153.3
  0.009594              -39.95         0.7364          53.84          36.02          -16.1         -5.731          140.8          76.74          150.5          26.27          153.3
   0.01096              -39.95          0.742          53.83          36.02          -16.1         -5.732          140.7          76.73          150.5          26.27          153.3
   0.01233              -39.95         0.7479          53.82          36.03         -16.09         -5.734          140.7          76.71          150.4          26.28          153.2
   0.01371              -39.95         0.7542           53.8          36.03         -16.09         -5.736          140.6           76.7          150.4          26.29          153.2
   0.01508              -39.95         0.7611          53.79          36.04         -16.08         -5.739          140.5          76.69          150.3           26.3          153.1
   0.01645              -39.95         0.7684          53.78          36.05         -16.08         -5.741          140.4          76.67          150.3          26.31          153.1
   0.01782              -39.95         0.7764          53.76          36.06         -16.08         -5.743          140.3          76.66          150.2          26.32          153.1
   0.01919              -39.94          0.785          53.75          36.06         -16.07         -5.746          140.2          76.64          150.2          26.33          153.0
   0.02056              -39.94         0.7943          53.73          36.07         -16.07         -5.749          140.1          76.62          150.1          26.34          153.0
   0.02193              -39.94         0.8045          53.71          36.08         -16.06         -5.752          140.0           76.6          150.1          26.36          152.9
    0.0233              -39.94         0.8156          53.69          36.09         -16.06         -5.756          139.9          76.58          150.0          26.37          152.9
   0.02467              -39.94         0.8276          53.66           36.1         -16.05          -5.76          139.7          76.55          149.9          26.39          152.8
   0.02604              -39.94         0.8409          53.64          36.12         -16.04         -5.764          139.5          76.52          149.8           26.4          152.7
   0.02741              -39.94         0.8554          53.61          36.13         -16.03         -5.768          139.4          76.49          149.7          26.42          152.6
   0.02878              -39.94         0.8714          53.58          36.14         -16.02         -5.774          139.2          76.46          149.6          26.44          152.6
   0.03015              -39.94          0.889          53.54          36.16         -16.02         -5.779          139.0          76.42          149.5          26.46          152.5
   0.03152              -39.93         0.9086          53.51          36.18          -16.0         -5.785          138.7          76.38          149.4          26.49          152.4
   0.03289              -39.93         0.9303          53.47           36.2         -15.99         -5.792          138.5          76.34          149.3          26.52          152.2
   0.03426              -39.93         0.9546          53.42          36.22         -15.98           -5.8          138.2          76.29          149.1          26.55          152.1
   0.03563              -39.93         0.9818          53.37          36.25         -15.96         -5.809          137.8          76.23          148.9          26.58          152.0
     0.037              -39.93          1.012          53.31          36.27         -15.95         -5.818          137.5          76.17          148.7          26.62          151.8
   0.03837              -39.92          1.047          53.24          36.31         -15.93         -5.829          137.1           76.1          148.5          26.67          151.6
   0.03974              -39.92          1.086          53.17          36.34         -15.91         -5.842          136.6          76.02          148.3          26.72          151.4
   0.04112              -39.92          1.131          53.08          36.39         -15.88         -5.856          136.0          75.93          148.0          26.78          151.2
   0.04249              -39.91          1.182          52.98          36.43         -15.86         -5.872          135.4          75.82          147.6          26.84          150.9
   0.04386              -39.91          1.242          52.87          36.49         -15.82         -5.891          134.7           75.7          147.3          26.92          150.6
   0.04523               -39.9          1.311          52.73          36.55         -15.79         -5.913          133.9          75.56          146.8          27.01          150.2
    0.0466               -39.9          1.391          52.58          36.63         -15.74         -5.939          132.9          75.39          146.3          27.11          149.8
   0.04797              -39.89          1.486          52.39          36.72         -15.69         -5.969          131.7           75.2          145.7          27.23          149.3
   0.04934              -39.88          1.599          52.18          36.82         -15.63         -6.005          130.4          74.97          145.0          27.38          148.7
   0.05071              -39.87          1.735          51.92          36.95         -15.55         -6.048          128.7          74.69          144.1          27.55          148.0
   0.05208              -39.85          1.899           51.6           37.1         -15.46           -6.1          126.7          74.35          143.0          27.77          147.1
   0.05345              -39.84          2.099          51.21          37.29         -15.36         -6.163          124.3          73.94          141.7          28.02          146.0
   0.05482              -39.82          2.346          50.74          37.52         -15.22         -6.242          121.3          73.43          140.2          28.34          144.7
   0.05619              -39.79          2.654          50.15           37.8         -15.05          -6.34          117.6           72.8          138.2          28.74          143.1
   0.05756              -39.76          3.042           49.4          38.17         -14.84         -6.463          112.9           72.0          135.7          29.24          141.0
   0.05893              -39.72          3.535          48.45          38.63         -14.57         -6.619          106.9          70.99          132.5          29.87          138.4
    0.0603              -39.67          4.167          47.23          39.21         -14.23          -6.82          99.25          69.69          128.5          30.69          135.0
   0.06167               -39.6          4.977          45.67          39.97         -13.78         -7.077          89.43          68.03          123.2          31.73          130.7
   0.06304              -39.52          6.012          43.68          40.93         -13.22         -7.406          76.88           65.9          116.6          33.07          125.1
   0.06441              -39.41          7.314          41.17          42.15         -12.51         -7.819          61.11          63.23          108.2          34.74          118.2
   0.06578              -39.28            8.9          38.11          43.63         -11.64         -8.323          41.89          59.97          98.03          36.79          109.7
   0.06715              -39.13          10.74          34.57          45.34         -10.64         -8.906          19.62           56.2          86.22          39.16          99.94
   0.06853              -38.97          12.73          30.74          47.19         -9.555         -9.539         -4.504          52.11          73.42          41.72          89.33
    0.0699              -38.81          14.72           26.9          49.05         -8.469         -10.17         -28.63          48.02          60.63          44.29          78.71
   0.07127              -38.66          16.56          23.36          50.76         -7.466         -10.75          -50.9          44.25          48.81          46.66          68.91
   0.07264              -38.53          18.14          20.31          52.24         -6.601         -11.26         -70.12          40.99          38.62           48.7          60.45
